# xmcd CD database file
#
# Track frame offsets:
#	150
#	15820
#	29640
#	46443
#	52670
#	63188
#	78868
#	88530
#	105805
#	120668
#	122640
#	134328
#	151398
#	152618
#	162860
#
# Disc length: 2364 seconds
#
# Revision: 0
# Processed by: cddbd v1.5.2PL0 Copyright (c) Steve Scherf et al.
# Submitted via: CDex 1.70beta2
#
DISCID=a3093a0f
DTITLE=Old Stoariegler Dixielandband - Tschäss ohne Gnade
DYEAR=1900
DGENRE=Jazz
TTITLE0=01 Margie
TTITLE1=02 When i am sixtyfour
TTITLE2=03 St. Louis Blues March
TTITLE3=04 Text: Frühlingsgedicht
TTITLE4=05 Zottelmarsch
TTITLE5=06 Back home in Indiana
TTITLE6=07 Tiger Rag
TTITLE7=08 Alexanders Ragtimeband
TTITLE8=09 Dinah
TTITLE9=10 Text: S'Burgenland
TTITLE10=11 Kukurutz-Boogie
TTITLE11=12 Text: Das Manöver
TTITLE12=13 Text: Ansage
TTITLE13=14 Old MC Donald had a Farm
TTITLE14=15 Sweet Georgia Brown
EXTD=
EXTT0=
EXTT1=
EXTT2=
EXTT3=
EXTT4=
EXTT5=
EXTT6=
EXTT7=
EXTT8=
EXTT9=
EXTT10=
EXTT11=
EXTT12=
EXTT13=
EXTT14=
PLAYORDER=
